<svg width="28" height="19" viewBox="0 0 28 19" fill="none" xmlns="http://www.w3.org/2000/svg">
<path d="M3.28261 18.8469C1.91298 18.8469 0.799698 17.7335 0.799698 16.3638V2.48303C0.799698 1.11414 1.91298 0 3.28261 0H25.0961C26.465 0 27.579 1.11414 27.579 2.48303V16.3638C27.579 17.7335 26.465 18.8469 25.0961 18.8469H3.28261ZM2.37807 2.80701V16.0398C2.37807 16.8201 3.01186 17.4536 3.79213 17.4536H24.5866C25.3659 17.4536 26.0004 16.8201 26.0004 16.0398V2.80701C26.0004 2.02771 25.3659 1.39319 24.5866 1.39319H3.79213C3.01186 1.39319 2.37807 2.02771 2.37807 2.80701ZM23.7306 12.15L22.3681 10.377L21.0045 12.15H16.6415V6.6969H21.1415L22.2321 8.33301L23.5956 6.6969H25.0951L23.0512 9.42297L25.0951 12.15H23.7306ZM17.735 11.0592H20.3241L21.5519 9.4248L20.4611 7.92444H17.735V8.87756H20.1884V9.96838H17.735V11.0592ZM14.0529 12.15V8.19714L12.5526 12.15H11.4618L9.96156 8.06042V12.15H7.64491L7.2372 10.9232H4.91884L4.50941 12.15H3.28188L5.32655 6.6969H6.8268L8.73573 11.8773V6.6969H10.6437L12.0072 10.377L13.3707 6.6969H15.1437V12.15H14.0529ZM5.32655 9.69568H6.69106L6.00868 7.78772L5.32655 9.69568Z" fill="black"/>
</svg>
