<svg width="31" height="19" viewBox="0 0 31 19" fill="none" xmlns="http://www.w3.org/2000/svg">
<path d="M9.69569 18.6808C4.54579 18.6808 0.355362 14.4911 0.355362 9.34009C0.355362 4.19006 4.54579 -0.000488281 9.69569 -0.000488281H20.9616C26.1117 -0.000488281 30.3021 4.19006 30.3021 9.34009C30.3021 14.4911 26.1117 18.6808 20.9616 18.6808H9.69569ZM0.893204 9.34265C0.893204 14.1959 4.84193 18.1444 9.69569 18.1444C14.549 18.1444 18.4975 14.1959 18.4975 9.34265C18.4975 4.4895 14.549 0.540161 9.69569 0.540161C4.84193 0.540161 0.893204 4.4895 0.893204 9.34265ZM11.7619 4.0072C13.9039 4.83704 15.4232 6.91016 15.4232 9.34265C15.4232 11.7754 13.902 13.8502 11.7619 14.6782V4.0072ZM3.97035 9.34265V9.34009C3.97035 6.90747 5.4894 4.83264 7.63051 4.00464V14.6782C5.49208 13.8502 3.97035 11.7772 3.97035 9.34265Z" fill="black"/>
</svg>
