<svg width="37" height="25" viewBox="0 0 37 25" fill="none" xmlns="http://www.w3.org/2000/svg">
<path d="M34.1321 24.6736H2.86574C1.47914 24.6717 0.355804 23.5475 0.354858 22.1609L0.354874 2.51089C0.356766 1.12494 1.47981 0.00189209 2.86574 0L34.1321 3.05176e-05C35.518 0.00189209 36.641 1.12497 36.643 2.51089L36.643 22.1609C36.642 23.5475 35.5187 24.6717 34.1321 24.6736ZM2.86575 1.43756C2.27393 1.43756 1.79414 1.91733 1.79414 2.50916L1.79413 22.1609C1.79414 22.7528 2.27391 23.2326 2.86575 23.2326H34.1321C34.7239 23.2326 35.2037 22.7528 35.2037 22.1609V2.51089C35.2037 1.91907 34.7239 1.43927 34.1321 1.43927L2.86575 1.43756Z" fill="black"/>
<rect x="30.605" y="3.72998" width="2.308" height="17.3039" fill="black"/>
<rect x="27.1526" y="3.72998" width="2.308" height="14.9959" fill="black"/>
<rect x="9.84869" y="3.72998" width="2.308" height="14.9959" fill="black"/>
<rect x="21.3713" y="3.72998" width="2.308" height="14.9959" fill="black"/>
<rect x="15.6091" y="3.72998" width="3.37963" height="14.9959" fill="black"/>
<rect x="7.57709" y="3.72998" width="1.10805" height="14.9959" fill="black"/>
<rect x="13.3376" y="3.72998" width="1.10805" height="14.9959" fill="black"/>
<rect x="24.8446" y="3.72998" width="1.10805" height="14.9959" fill="black"/>
<rect x="4.06741" y="3.72998" width="2.308" height="17.3039" fill="black"/>
</svg>
