<svg width="34" height="13" viewBox="0 0 34 13" fill="none" xmlns="http://www.w3.org/2000/svg">
<path d="M5.8515 2.74267C6.21545 2.62108 6.60455 2.55574 7.0097 2.55574C8.7764 2.55574 10.2514 3.81059 10.5893 5.47853L13.0936 4.96768C12.519 2.13324 10.0139 0 7.0097 0C6.32132 0 5.66003 0.112191 5.04135 0.3189L5.8515 2.74267Z" fill="black"/>
<path d="M2.89613 10.8589L4.58969 8.94421C3.8337 8.27447 3.35672 7.29701 3.35672 6.20802C3.35672 5.11903 3.83305 4.14287 4.58855 3.47395L2.89467 1.55908C1.6108 2.6964 0.800659 4.35785 0.800659 6.20802C0.800659 8.0582 1.61112 9.72144 2.89613 10.8589Z" fill="black"/>
<path d="M10.5887 6.94092C10.2495 8.60803 8.77591 9.86047 7.00974 9.86047C6.60443 9.86047 6.21417 9.79514 5.85037 9.67288L5.03909 12.0978C5.65793 12.3043 6.32053 12.4162 7.00974 12.4162C10.011 12.4162 12.5157 10.2865 13.0927 7.45453L10.5887 6.94092Z" fill="black"/>
<path d="M15.2836 9.0252C15.2016 8.89225 15.0902 8.67971 15.023 8.52326C14.6263 7.60254 14.6074 6.64974 14.9423 5.73502C15.3106 4.73197 16.014 3.96398 16.9229 3.57293C18.0656 3.0812 19.3293 3.17815 20.4244 3.82795C21.1201 4.2271 21.6133 4.84334 21.9878 5.71476C22.0355 5.8263 22.0775 5.94547 22.1184 6.04664L15.2836 9.0252ZM17.5659 5.05103C16.7544 5.39976 16.3361 6.16092 16.4221 7.05343L19.8594 5.57404C19.2683 4.87949 18.4992 4.64928 17.5659 5.05103ZM20.2883 8.26986C20.2875 8.2705 20.287 8.27115 20.2863 8.27179L20.2152 8.22382C20.0101 8.55666 19.69 8.82627 19.2861 9.00136C18.5178 9.3355 17.8058 9.24958 17.2944 8.80114L17.2474 8.87264C17.2474 8.87264 17.2468 8.87118 17.246 8.87118L16.3739 10.1758C16.5903 10.3263 16.8228 10.4537 17.067 10.5555C18.0303 10.9556 19.0159 10.9371 19.9869 10.5148C20.6892 10.2105 21.2402 9.74633 21.6169 9.15813L20.2883 8.26986Z" fill="black"/>
<path d="M24.5074 1.65137V8.90452L25.635 9.36155L24.9943 10.8567L23.7495 10.3384C23.4701 10.2174 23.2799 10.0323 23.136 9.82328C22.9983 9.61025 22.8954 9.31794 22.8954 8.9243V1.65137H24.5074Z" fill="black"/>
<path d="M27.4286 7.05676C27.4293 6.43906 27.7019 5.88522 28.1335 5.50879L26.9765 4.21875C26.1919 4.91232 25.6977 5.92575 25.6967 7.05496C25.6954 8.18451 26.1889 9.19907 26.9729 9.89444L28.1285 8.60309C27.6991 8.22504 27.4281 7.673 27.4286 7.05676Z" fill="black"/>
<path d="M29.4843 9.11533C29.2566 9.11469 29.0372 9.07706 28.8326 9.00897L28.28 10.6518C28.6577 10.7786 29.0621 10.8477 29.4825 10.8483C31.3144 10.8501 32.8441 9.55032 33.1985 7.82239L31.5002 7.47559C31.3071 8.41254 30.4779 9.11615 29.4843 9.11533Z" fill="black"/>
<path d="M29.4892 3.26905C29.0693 3.26856 28.6649 3.33681 28.2878 3.46247L28.8355 5.10674C29.0407 5.03896 29.2601 5.00151 29.4876 5.00151C30.4834 5.00249 31.3133 5.71048 31.5018 6.64968L33.2003 6.30516C32.8509 4.57495 31.3226 3.27034 29.4892 3.26905Z" fill="black"/>
</svg>
