<svg width="37" height="16" viewBox="0 0 37 16" fill="none" xmlns="http://www.w3.org/2000/svg">
<path d="M15.5646 15.1166L0.799332 15.1217V15.0869C0.799332 15.0676 0.822876 14.9431 0.851669 14.81C0.880569 14.6771 0.925255 14.4655 0.951218 14.3399C0.977066 14.2143 1.02138 14.0011 1.04951 13.8657C1.11888 13.5351 1.18744 13.2044 1.25513 12.8735C1.28173 12.743 1.3261 12.5296 1.35387 12.3993C1.38919 12.2325 1.42414 12.0656 1.45882 11.8987C1.48885 11.7537 1.53444 11.5325 1.56018 11.4068C1.58587 11.2812 1.62692 11.0877 1.65111 10.9767C1.67535 10.8656 1.70628 10.7154 1.71977 10.643C1.73336 10.5705 1.77719 10.3571 1.81723 10.1687C1.85094 10.0109 1.8837 9.85286 1.91542 9.69456C1.9294 9.62209 1.97375 9.40872 2.01406 9.22034C2.05431 9.03207 2.09851 8.8186 2.11227 8.74619C2.12601 8.67378 2.17054 8.46025 2.2111 8.27203C2.25167 8.08359 2.2955 7.87408 2.3084 7.80659C2.32141 7.73895 2.35684 7.56508 2.38728 7.42021C2.41757 7.27527 2.47516 7.00256 2.51503 6.81424C2.55502 6.62585 2.62319 6.2979 2.66659 6.08534C2.71015 5.87282 2.76218 5.61995 2.78218 5.52335C2.84116 5.23929 2.90057 4.95543 2.96056 4.67159C2.9901 4.53152 3.03821 4.30231 3.06748 4.16216C3.09669 4.02214 3.14177 3.8047 3.16762 3.67921C3.19336 3.5536 3.23746 3.34419 3.26544 3.21382C3.29348 3.08334 3.34177 2.85414 3.37263 2.70441C3.40357 2.55472 3.45537 2.32552 3.48775 2.19508C3.52007 2.06467 3.56579 1.90663 3.58944 1.84384C3.61298 1.78102 3.67811 1.64493 3.73409 1.54138L3.83582 1.3531L3.92835 1.23398C3.97913 1.16852 4.06997 1.06512 4.13011 1.00412C4.19027 0.943115 4.29169 0.851379 4.35563 0.800217C4.41943 0.749008 4.51196 0.679916 4.56109 0.646744C4.61021 0.61351 4.70671 0.555328 4.77558 0.51738C4.84435 0.479538 4.94095 0.429993 4.99008 0.407242C5.03921 0.384491 5.13971 0.342865 5.2134 0.314819C5.28704 0.286942 5.42791 0.240021 5.52611 0.210632C5.62436 0.181305 5.80895 0.137039 5.93621 0.112427C6.06336 0.0876465 6.26438 0.0546265 6.38295 0.0390015L6.59841 0.0105286L21.3728 0.00506592L36.1472 -0.000488281V0.0343933C36.1472 0.0535583 36.1236 0.17804 36.0947 0.311081C36.0581 0.47934 36.0223 0.647812 35.9871 0.81633C35.9569 0.961258 35.9128 1.17076 35.8891 1.28177C35.8556 1.4398 35.8224 1.59784 35.7896 1.75598C35.7584 1.90578 35.7106 2.13504 35.6833 2.2653C35.6558 2.39578 35.6115 2.60919 35.5846 2.73962C35.5579 2.86998 35.5133 3.08334 35.4856 3.21379C35.4533 3.36594 35.4215 3.51813 35.3902 3.67044C35.3653 3.79117 35.3203 4.00845 35.2904 4.15338C35.2603 4.29825 35.212 4.52747 35.183 4.66275C35.154 4.79793 35.1101 5.00739 35.0851 5.12813C35.06 5.24881 35.015 5.4662 34.9851 5.61107C34.9551 5.75598 34.907 5.98515 34.878 6.12044C34.849 6.25572 34.806 6.46118 34.7821 6.5771C34.716 6.89917 34.6494 7.22118 34.5825 7.54308C34.5582 7.65895 34.5152 7.86456 34.4866 7.99963C34.4501 8.17238 34.4139 8.34503 34.378 8.5179C34.3467 8.66768 34.3022 8.88083 34.2789 8.99205C34.2555 9.10309 34.2118 9.31255 34.1818 9.45737C34.1466 9.62723 34.1111 9.79709 34.0755 9.9668C34.0471 10.102 34.0026 10.3155 33.9764 10.4411C33.9506 10.5666 33.9051 10.784 33.876 10.924C33.8467 11.0639 33.7989 11.2932 33.7697 11.4332C33.7405 11.5734 33.6969 11.7828 33.6726 11.8988C33.6395 12.0568 33.6068 12.2148 33.574 12.3729C33.5389 12.5423 33.5028 12.7114 33.4657 12.8803L33.412 13.1242L33.3479 13.2929C33.3127 13.3858 33.2596 13.5092 33.2301 13.5671C33.2005 13.6251 33.1404 13.7274 33.0965 13.7944C33.0524 13.8615 32.9912 13.9472 32.9602 13.9852C32.9293 14.0232 32.8363 14.1212 32.7533 14.2029L32.6027 14.3515L32.4576 14.4528C32.3779 14.5085 32.2918 14.5652 32.2667 14.5788C32.2413 14.5923 32.1452 14.6405 32.0531 14.6859C31.9608 14.7314 31.8306 14.789 31.7638 14.8141C31.6967 14.8395 31.5641 14.8824 31.4688 14.9096C31.3736 14.937 31.2716 14.9637 31.2421 14.9692C31.2125 14.9748 31.1103 14.9955 31.0147 15.0155C30.919 15.0353 30.726 15.0651 30.5857 15.0815L30.3307 15.1113L15.5646 15.1166ZM10.3113 11.3629H10.6956L10.7064 11.3351C10.7124 11.3197 10.7173 11.2839 10.7173 11.2554C10.7173 11.2266 10.73 11.1226 10.7454 11.024C10.7609 10.9254 10.7972 10.6985 10.8261 10.5198C10.8551 10.3411 10.8983 10.0725 10.9224 9.92276C10.9451 9.78099 10.9669 9.63895 10.9875 9.49677C10.9993 9.41231 11.0137 9.34311 11.0195 9.34311C11.0253 9.34311 11.0502 9.38046 11.0747 9.42616L11.1193 9.50917L11.2184 9.60727L11.3176 9.70526L11.4394 9.75327L11.5614 9.80132L11.7067 9.81979L11.8521 9.83835L12.0365 9.82722L12.221 9.81615L12.4207 9.7653L12.6205 9.71448L12.7276 9.66646C12.7867 9.64003 12.8912 9.58234 12.96 9.53824L13.0851 9.45822L13.2018 9.34354C13.2659 9.28072 13.3564 9.17957 13.4028 9.11916C13.4493 9.05862 13.4872 9.00471 13.4872 8.99933C13.4872 8.99391 13.5101 8.95651 13.5379 8.91609C13.5658 8.87575 13.6228 8.76358 13.6647 8.66704C13.7065 8.57039 13.7718 8.39656 13.81 8.28064L13.8793 8.0699L13.9151 7.88736C13.9348 7.7869 13.9601 7.621 13.9714 7.51846L13.9919 7.33223L13.98 7.17418L13.9682 7.01614L13.9309 6.858L13.8937 6.69997L13.8332 6.58165L13.7729 6.46321L13.6563 6.34178L13.5397 6.22025L13.4018 6.15019L13.2638 6.08003L13.1119 6.04428L12.96 6.00859L12.808 5.99767L12.6563 5.98669L12.487 6.0058L12.3178 6.02481L12.1796 6.05948L12.0416 6.09406L11.9216 6.14874C11.8556 6.17867 11.7595 6.22966 11.7083 6.26199C11.6569 6.29427 11.6038 6.33141 11.5905 6.34456C11.5771 6.35762 11.545 6.38197 11.5192 6.3985L11.4722 6.4287L11.5051 6.27435C11.5231 6.18953 11.5382 6.11032 11.5386 6.09816L11.5393 6.07622H10.8841L10.8266 6.4319C10.795 6.62761 10.7451 6.92982 10.7157 7.10374C10.6509 7.48732 10.5854 7.87076 10.5191 8.25409C10.4899 8.4231 10.4416 8.69191 10.4117 8.85123C10.3819 9.01065 10.3382 9.24377 10.3146 9.36949C10.2911 9.49504 10.2466 9.73207 10.2161 9.89632C10.1799 10.0895 10.1434 10.2828 10.1066 10.4758C10.0717 10.6575 10.0361 10.839 9.99968 11.0203C9.97046 11.1652 9.94226 11.3016 9.9368 11.3233L9.92701 11.3628L10.3113 11.3629ZM11.9655 9.33231L11.8163 9.34114L11.7188 9.32417L11.6213 9.30736L11.5222 9.26289L11.4231 9.21837L11.3539 9.15346L11.2848 9.08859L11.2448 9.00078C11.2228 8.95244 11.1946 8.87035 11.1821 8.81833L11.1593 8.72377L11.1685 8.57242L11.1777 8.42113L11.2237 8.18393C11.2584 8.00275 11.2921 7.82126 11.3247 7.63956C11.3549 7.4705 11.4008 7.22272 11.4265 7.0891L11.4733 6.84601L11.5757 6.76221C11.6321 6.71619 11.7214 6.65437 11.7741 6.62506L11.87 6.57158L11.995 6.53354L12.1202 6.49544L12.2811 6.48618L12.4419 6.47685L12.5728 6.50436L12.7038 6.53177L12.7963 6.57362L12.8887 6.61548L12.9662 6.69205L13.0437 6.76863L13.0854 6.84972C13.1085 6.89429 13.1407 6.98164 13.1572 7.04366L13.1872 7.15652L13.1781 7.49031L13.1688 7.82399L13.123 8.02124C13.0978 8.12973 13.0497 8.29573 13.0163 8.39009L12.9554 8.56171L12.8807 8.70053C12.8397 8.7769 12.7765 8.88019 12.7402 8.92998C12.7039 8.97978 12.646 9.04433 12.6116 9.07327C12.57 9.10812 12.5273 9.14178 12.4837 9.17416L12.4181 9.22217L12.2665 9.27278L12.1148 9.32349L11.9655 9.33231ZM15.6763 9.81503L15.8729 9.81738L16.0695 9.79967C16.1777 9.79004 16.3545 9.76974 16.4627 9.75482C16.5708 9.73994 16.7575 9.70633 16.8777 9.68042L17.0961 9.63312L17.107 9.55397C17.113 9.51051 17.1375 9.38095 17.1616 9.26593L17.2052 9.05717L17.1955 9.0477L17.1859 9.03828L17.1191 9.0699C17.0823 9.08736 16.9679 9.129 16.8648 9.16238L16.6774 9.22307L16.4806 9.26059L16.284 9.29805L15.9711 9.29869L15.6584 9.29918L15.5511 9.2655C15.4921 9.2471 15.4055 9.21329 15.3584 9.19038L15.2729 9.14883L15.2023 9.08612L15.1317 9.02341L15.0767 8.92879L15.0216 8.83406L14.987 8.71552L14.9525 8.59677L14.9522 8.37714L14.952 8.1575L14.9826 7.96162L15.0134 7.76576L15.2822 7.75345L15.551 7.74109L16.5451 7.74741L17.5391 7.75366L17.5691 7.62849C17.5857 7.55966 17.611 7.4174 17.6252 7.31236L17.6513 7.12137L17.652 6.96075L17.6525 6.80009L17.6242 6.68005L17.5959 6.56018L17.549 6.48076C17.5234 6.43709 17.478 6.37378 17.4483 6.34003C17.4186 6.30635 17.3656 6.25883 17.3305 6.23448C17.2954 6.21013 17.2265 6.16919 17.1774 6.14349L17.0879 6.09679L16.9318 6.05986L16.7758 6.02298L16.5834 6.0049L16.391 5.98676L16.2122 5.99815L16.0336 6.00966L15.8191 6.05011L15.6047 6.09064L15.4706 6.14323C15.3969 6.17213 15.2843 6.22496 15.2204 6.2606C15.1566 6.29619 15.0681 6.35414 15.0239 6.38936C14.9796 6.42458 14.903 6.49307 14.8537 6.54156C14.8043 6.59004 14.7312 6.677 14.6914 6.73503C14.6515 6.79303 14.5904 6.89568 14.5556 6.96336C14.5207 7.03102 14.4753 7.12581 14.4546 7.17413C14.434 7.2224 14.3965 7.3212 14.3713 7.39366C14.346 7.46613 14.3064 7.60446 14.2832 7.70105C14.2559 7.81815 14.2323 7.93594 14.2124 8.05437L14.184 8.23222L14.1843 8.49353L14.1845 8.75481L14.2117 8.869C14.2266 8.93178 14.2552 9.02666 14.2752 9.0798C14.2951 9.13284 14.3321 9.21199 14.3572 9.25536C14.3825 9.2988 14.4362 9.36891 14.4767 9.41092C14.5173 9.45299 14.5906 9.51683 14.6398 9.5528C14.6889 9.58865 14.7763 9.63922 14.8341 9.66518L14.9391 9.71211L15.0857 9.74695C15.1663 9.76595 15.2878 9.7888 15.3559 9.79736C15.424 9.80592 15.5681 9.81396 15.6763 9.81503ZM16.0128 7.34094C15.5182 7.34094 15.1134 7.33752 15.1134 7.33318C15.1134 7.32884 15.1345 7.26767 15.1603 7.19708C15.186 7.12645 15.2314 7.02139 15.2609 6.96359L15.3148 6.85838L15.4329 6.74289L15.5512 6.62724L15.6674 6.57271C15.7312 6.54262 15.8157 6.50993 15.855 6.50003C15.8943 6.49008 16.0069 6.47691 16.1052 6.47081L16.284 6.45946L16.4212 6.47679L16.5583 6.49414L16.658 6.53909L16.7578 6.58394L16.8125 6.64191C16.8426 6.6738 16.8784 6.72073 16.8921 6.7462L16.9171 6.79256L16.9336 6.89546L16.9502 6.99838L16.9312 7.16963L16.9123 7.34088L16.0128 7.34094ZM21.3591 9.81512L21.5558 9.81738L21.7791 9.79132C21.9019 9.77702 22.0654 9.75337 22.1424 9.73871C22.2354 9.72018 22.3279 9.69868 22.4194 9.67401C22.4947 9.65303 22.563 9.63055 22.5709 9.62376C22.5788 9.61702 22.6001 9.53732 22.6182 9.44662C22.6362 9.35596 22.6591 9.23425 22.6688 9.1763C22.6785 9.11833 22.6835 9.06793 22.6799 9.06403C22.6763 9.06027 22.6632 9.06516 22.6506 9.07494C22.6381 9.08473 22.5504 9.12096 22.4558 9.15547L22.2837 9.21831L22.0386 9.26488L21.7936 9.3116L21.5853 9.30469L21.3769 9.29764L21.2585 9.25726L21.1401 9.21687L21.0488 9.13835L20.9572 9.05969L20.8967 8.95111L20.836 8.84262L20.807 8.69733L20.7782 8.55214L20.7784 8.36365L20.7786 8.17522L20.8137 7.94681L20.8488 7.71851L20.8859 7.59546C20.9063 7.52788 20.9294 7.44894 20.9373 7.41992C20.9451 7.39093 20.9778 7.30794 21.0101 7.23552C21.0423 7.1631 21.0998 7.05115 21.1378 6.98666L21.2069 6.86957L21.2919 6.78304L21.377 6.69649L21.467 6.64174L21.5569 6.58694L21.6724 6.55194C21.736 6.53273 21.8483 6.50774 21.922 6.49651L22.0561 6.47591L22.2525 6.48564L22.4492 6.49538L22.6816 6.54108L22.9138 6.58673L23.0083 6.62131C23.0604 6.64041 23.1051 6.65598 23.1079 6.65598C23.1106 6.65598 23.1231 6.59074 23.1357 6.511C23.148 6.43137 23.1702 6.30026 23.1848 6.21977C23.1995 6.13911 23.208 6.0697 23.2036 6.06552C23.1992 6.06125 23.1295 6.05043 23.0485 6.04134C22.9674 6.0323 22.7473 6.01619 22.5591 6.00548L22.217 5.98621L21.9757 6.00441L21.7345 6.02261L21.5557 6.05943L21.3771 6.09636L21.2619 6.14163C21.1986 6.16652 21.1059 6.21147 21.0559 6.24138C21.008 6.27007 20.9609 6.29993 20.9144 6.33102C20.8866 6.35034 20.8023 6.42575 20.7269 6.49858L20.5901 6.631L20.5136 6.74101C20.4717 6.80154 20.3989 6.92758 20.3521 7.02133L20.267 7.19174L20.2017 7.3761C20.1658 7.47751 20.1156 7.64346 20.0903 7.74489L20.0443 7.92935L20.0275 8.09622L20.0109 8.26309L20.011 8.48262L20.0112 8.70219L20.0281 8.82983L20.0449 8.95763L20.0985 9.08907L20.1519 9.2204L20.2138 9.31529L20.2756 9.41034L20.3739 9.50537L20.4722 9.60031L20.5762 9.65446L20.6802 9.70847L20.8169 9.74577C20.8919 9.76622 21.0006 9.78983 21.058 9.79817C21.1156 9.8063 21.2509 9.81406 21.3591 9.81512ZM24.2988 9.80876L24.5399 9.80197L24.6918 9.76369L24.8438 9.72539L24.9421 9.67979C24.9961 9.65463 25.0846 9.60513 25.1387 9.56958C25.1928 9.53416 25.2764 9.46663 25.3246 9.41975C25.3728 9.37271 25.4443 9.29259 25.4835 9.24164C25.5227 9.19069 25.557 9.15132 25.5599 9.15404C25.563 9.15692 25.5539 9.23816 25.5399 9.33455C25.5261 9.43105 25.5145 9.55933 25.5143 9.61969L25.514 9.72945H26.17L26.18 9.47916L26.19 9.22887L26.2368 8.90395C26.2625 8.7252 26.3041 8.46046 26.3293 8.3156C26.3544 8.17065 26.3978 7.92572 26.4261 7.77112C26.4542 7.61661 26.499 7.37552 26.5254 7.23546L26.5734 6.98083L26.575 6.76082L26.5765 6.54086L26.526 6.43924L26.4753 6.33755L26.4068 6.27286L26.3382 6.20804L26.2255 6.15201L26.1128 6.09578L25.9449 6.05905L25.777 6.02228L25.5457 6.00511L25.3145 5.98782L25.0169 6.00597C24.853 6.01591 24.6225 6.03557 24.5045 6.04964L24.2901 6.07516L24.1439 6.07576L23.9978 6.07634L23.9766 6.17743C23.9649 6.23288 23.9324 6.36485 23.9044 6.47066C23.8763 6.57645 23.856 6.66545 23.8592 6.6685C23.8622 6.67177 23.9405 6.65417 24.0328 6.62981C24.1252 6.60536 24.3215 6.56522 24.4689 6.5405L24.7369 6.49559L24.9781 6.4859L25.2194 6.47601L25.3749 6.50276L25.5302 6.52962L25.6339 6.57988L25.7376 6.63025L25.7957 6.71527L25.8538 6.80037L25.8529 6.93448L25.8521 7.06865L25.8214 7.21582L25.7905 7.36299L25.1475 7.3653L24.5045 7.36754L24.294 7.42432C24.1783 7.45552 24.0501 7.49689 24.0093 7.51631C23.9683 7.53574 23.9273 7.5517 23.9182 7.5517C23.9092 7.5517 23.8404 7.5891 23.7653 7.63512L23.6289 7.71844L23.5215 7.82394C23.4623 7.88184 23.3867 7.96881 23.3536 8.01718C23.3204 8.06546 23.2664 8.16621 23.2338 8.24136L23.1744 8.37767L23.1469 8.53111L23.1195 8.68437V9.00633L23.1457 9.14034L23.1717 9.27419L23.2201 9.36169C23.2468 9.4097 23.2956 9.48016 23.3286 9.51817L23.3889 9.5871L23.4957 9.65088L23.6025 9.71484L23.7249 9.74876C23.7922 9.76744 23.8946 9.79008 23.9525 9.79912L24.0579 9.8154L24.2988 9.80876ZM24.5222 9.31749L24.3792 9.32497L24.2844 9.30127C24.2323 9.28819 24.1534 9.2592 24.1089 9.23666L24.0279 9.19583L23.9837 9.1442C23.9594 9.11572 23.9224 9.06006 23.9012 9.02036L23.8629 8.94804L23.8555 8.7791L23.8479 8.61031L23.8782 8.50793C23.8949 8.45158 23.9339 8.35381 23.9651 8.2907L24.0216 8.17586L24.13 8.07021L24.2383 7.96442L24.3533 7.90994L24.4683 7.85556L24.6113 7.82211L24.7543 7.78873H25.6478L25.676 7.80023L25.7042 7.81168L25.6804 7.94954C25.6674 8.02531 25.6362 8.16248 25.6112 8.25415C25.586 8.34599 25.5418 8.48079 25.5129 8.55406C25.4839 8.62706 25.4601 8.69171 25.4601 8.69765C25.4601 8.70358 25.4308 8.75684 25.3947 8.81598L25.3295 8.92375L25.2224 9.02812C25.1635 9.08533 25.1088 9.13231 25.1008 9.13231C25.0929 9.13231 25.0569 9.15213 25.0206 9.17625L24.9547 9.22014L24.8098 9.2652L24.6648 9.31026L24.5222 9.31749ZM30.3389 9.81499L30.5086 9.81706L30.6695 9.79138C30.758 9.77736 30.8706 9.75461 30.9197 9.74091C30.9688 9.7272 31.0574 9.69183 31.1163 9.66212L31.2236 9.60812L31.3158 9.5284L31.4081 9.44853L31.5052 9.32112C31.5586 9.25117 31.607 9.18204 31.6127 9.16753L31.6231 9.14119L31.614 9.22902C31.6077 9.28778 31.5994 9.34637 31.5893 9.40471C31.5807 9.45299 31.5683 9.54584 31.5618 9.61096L31.55 9.72955H32.2511V9.49237L32.3044 9.04454C32.3339 8.79814 32.3773 8.47025 32.4009 8.3157C32.4246 8.16113 32.4614 7.9399 32.4825 7.82399C32.5033 7.70807 32.5407 7.4986 32.5651 7.35854C32.5897 7.21855 32.6338 6.97351 32.6634 6.81412C32.693 6.65469 32.7403 6.40182 32.7685 6.25203C32.7968 6.10236 32.8408 5.86919 32.8662 5.73399C32.8916 5.59875 32.9372 5.36156 32.9675 5.20706C32.9991 5.04582 33.0318 4.88484 33.0657 4.72401C33.0895 4.61296 33.109 4.51616 33.109 4.50893V4.49571H32.3439L32.3326 4.60548C32.3265 4.66595 32.2972 4.86536 32.2676 5.04898C32.2326 5.26572 32.1969 5.4823 32.1604 5.69882C32.1393 5.82368 32.1183 5.94859 32.0978 6.07356L32.088 6.1321L32.0579 6.11952C32.0412 6.11252 31.9513 6.08795 31.858 6.06493L31.6882 6.02303L31.456 6.00526L31.2236 5.9875L31.0269 6.00548L30.8304 6.02351L30.6516 6.06793L30.473 6.1123L30.3032 6.1937L30.1333 6.2751L30.0082 6.36607L29.8832 6.45705L29.7751 6.57094C29.7157 6.63361 29.6299 6.73711 29.5843 6.80116L29.5018 6.91736L29.4045 7.11601C29.3512 7.2253 29.2861 7.3701 29.2601 7.43764C29.2341 7.50534 29.1882 7.65514 29.158 7.77074L29.1034 7.98088L29.0764 8.25394L29.0495 8.52666L29.0697 8.74623L29.09 8.96582L29.1139 9.04482C29.1271 9.08836 29.1548 9.16586 29.1756 9.21692L29.2131 9.31004L29.2821 9.40155L29.3508 9.49306L29.4295 9.55632L29.5079 9.61952L29.6152 9.67191C29.6742 9.70056 29.773 9.73785 29.8351 9.75444C29.8969 9.77113 29.9974 9.79126 30.0584 9.79903C30.1193 9.80646 30.2455 9.81386 30.3389 9.81499ZM30.6436 9.31673L30.5087 9.32362L30.4177 9.30769C30.3676 9.2988 30.2875 9.27498 30.2395 9.25482L30.1526 9.2182L30.0792 9.15918L30.0061 9.10014L29.9516 8.99767L29.8973 8.89523L29.8722 8.78108L29.8476 8.66693L29.8497 8.43857L29.8518 8.21028L29.8805 8.00818L29.9093 7.80634L29.9541 7.66585C29.9788 7.58856 29.999 7.51561 29.9991 7.5038C29.9993 7.49191 30.0236 7.42882 30.0531 7.36331C30.0878 7.28764 30.1245 7.21281 30.1631 7.13892C30.1938 7.08095 30.2514 6.99063 30.291 6.93819C30.3306 6.88574 30.4011 6.80669 30.4477 6.76248C30.4943 6.71843 30.5683 6.66054 30.6124 6.63394L30.6923 6.5856L30.8329 6.53781L30.9734 6.48987L31.2682 6.48975H31.5632L31.7329 6.53606C31.8263 6.56158 31.9255 6.59102 31.9533 6.60172L32.0038 6.62103L31.9939 6.6692C31.9885 6.69568 31.9672 6.81224 31.9467 6.92812C31.9262 7.04408 31.8857 7.26543 31.8567 7.41992C31.8277 7.57445 31.7834 7.80766 31.7579 7.93803C31.7327 8.06851 31.696 8.23447 31.6763 8.30687C31.6562 8.38132 31.6358 8.45558 31.615 8.52992C31.6007 8.58008 31.5671 8.66704 31.5402 8.72307C31.513 8.77904 31.4657 8.8605 31.4349 8.90401C31.4041 8.94746 31.352 9.00777 31.3191 9.0378C31.2863 9.06799 31.2152 9.12151 31.161 9.15677L31.0627 9.22104L30.9206 9.2653L30.7787 9.30962L30.6436 9.31673ZM4.34279 9.72955H4.77692L4.80811 9.5408C4.82519 9.43687 4.85869 9.23735 4.88245 9.09737L4.98071 8.51778C5.011 8.33902 5.05649 8.07423 5.0817 7.92935C5.10686 7.78448 5.14698 7.55972 5.17063 7.42993C5.19445 7.3 5.21837 7.18944 5.22388 7.18398L5.23395 7.17413H7.56894L7.58194 7.18687L7.59494 7.1996L7.57468 7.30096C7.56359 7.35678 7.53063 7.52888 7.50158 7.68338C7.4724 7.83795 7.42348 8.0988 7.39266 8.26303C7.36032 8.43585 7.32747 8.6086 7.29403 8.78114C7.27048 8.90192 7.22274 9.15468 7.18801 9.34311C7.15332 9.53151 7.12497 9.69548 7.12508 9.70761L7.12529 9.72955H7.99723L8.0165 9.6198C8.02716 9.55943 8.04424 9.45078 8.05451 9.37831C8.06467 9.30586 8.08945 9.15173 8.10941 9.03586C8.12937 8.91991 8.16919 8.69064 8.19799 8.52644C8.22672 8.36221 8.27498 8.08167 8.30506 7.90298C8.33515 7.72424 8.37976 7.46344 8.40435 7.32344C8.43532 7.14752 8.46766 6.97195 8.50121 6.79652C8.53 6.64667 8.57801 6.39391 8.60791 6.23444C8.63784 6.07512 8.68251 5.83401 8.70725 5.69878C8.73214 5.5636 8.77736 5.31859 8.80785 5.15436C8.83831 4.99011 8.8769 4.79846 8.89338 4.72841L8.92351 4.60098H8.04065L8.02866 4.68452C8.02207 4.73029 8.00078 4.85895 7.9813 4.96988C7.96177 5.08109 7.92638 5.27856 7.90258 5.40898C7.87876 5.53946 7.8353 5.7883 7.80587 5.9623C7.77707 6.13264 7.74935 6.3031 7.72269 6.47375L7.69289 6.66904L7.04491 6.68195L6.39687 6.69482L5.85416 6.68221C5.55564 6.6752 5.30974 6.66809 5.3077 6.66653C5.30561 6.66476 5.31578 6.59653 5.33017 6.51476C5.34923 6.40938 5.36945 6.30421 5.39096 6.19933C5.41837 6.06473 5.44497 5.93013 5.47083 5.79527C5.49582 5.6649 5.52407 5.50291 5.53376 5.43527C5.54328 5.36766 5.56345 5.25508 5.57839 5.18491C5.59337 5.11491 5.62183 4.96742 5.64164 4.85722C5.66138 4.74693 5.68248 4.64417 5.68848 4.62883L5.69928 4.60094H4.82353L4.7956 4.75468C4.78013 4.83925 4.75953 4.95978 4.74984 5.02249C4.74015 5.08531 4.7075 5.28682 4.67732 5.47037C4.64724 5.65393 4.60262 5.92661 4.57837 6.07628L4.48032 6.68221C4.44581 6.89317 4.40948 7.10402 4.37125 7.31445C4.33947 7.48726 4.30709 7.65996 4.27402 7.8326C4.25074 7.95325 4.20647 8.18254 4.17559 8.34192C4.14317 8.50896 4.10978 8.67581 4.07537 8.84251C4.05112 8.95833 4.02436 9.09271 4.01597 9.14104C4.0074 9.18936 3.97973 9.32861 3.95442 9.45064C3.9291 9.57249 3.90839 9.6851 3.90839 9.70094V9.72942L4.34279 9.72955ZM9.14951 9.72955H9.53388L9.54473 9.70168C9.55072 9.68637 9.55561 9.64633 9.55561 9.61273C9.55561 9.57903 9.57979 9.40385 9.60929 9.22334C9.6767 8.81223 9.74581 8.40143 9.81665 7.9908C9.84694 7.81783 9.87894 7.64513 9.91243 7.47266C9.94092 7.32779 9.98464 7.10252 10.0096 6.97211C10.0344 6.84169 10.0835 6.59363 10.1185 6.42076C10.1534 6.24791 10.1865 6.09956 10.1918 6.09111L10.2015 6.0757L9.81279 6.08035L9.42411 6.08511L9.39168 6.31358C9.37391 6.43912 9.33495 6.6881 9.30519 6.86671C9.27544 7.04547 9.23043 7.31821 9.20507 7.47266C9.1745 7.65744 9.14186 7.84181 9.10712 8.02589C9.07854 8.17564 9.03476 8.4048 9.00978 8.53528C8.98485 8.6658 8.94005 8.8949 8.9103 9.04459C8.88048 9.1944 8.84055 9.39192 8.82151 9.48366C8.8024 9.57559 8.78191 9.66838 8.77596 9.69L8.76514 9.72955H9.14951ZM18.1398 9.72955H18.5213L18.5328 9.57088C18.5391 9.4836 18.5607 9.30785 18.5807 9.18005C18.6008 9.05241 18.642 8.79778 18.6722 8.6143C18.7104 8.38747 18.7519 8.16109 18.7968 7.93536C18.8352 7.74553 18.8786 7.55676 18.8932 7.51605C18.9079 7.47522 18.9198 7.43106 18.9198 7.41785C18.9198 7.40457 18.9485 7.33243 18.9836 7.25757C19.0186 7.18268 19.084 7.06801 19.1288 7.00266L19.2103 6.88396L19.3192 6.78473L19.4282 6.68553L19.5628 6.62242L19.6973 6.55933L19.9027 6.56039L20.1083 6.56152L20.2093 6.59111C20.2648 6.6075 20.3151 6.62086 20.321 6.62086C20.3268 6.62086 20.3316 6.60214 20.3316 6.57935C20.3316 6.55659 20.3518 6.44089 20.3763 6.32225C20.4009 6.20372 20.4209 6.1017 20.4209 6.09566C20.4209 6.08951 20.3627 6.06702 20.2913 6.04572C20.2202 6.02448 20.1216 6.00221 20.0725 5.99622L19.983 5.98535L19.867 6.00554C19.8031 6.01662 19.7081 6.04112 19.656 6.06006C19.6037 6.07884 19.5174 6.12167 19.4642 6.155C19.4112 6.18855 19.3285 6.25369 19.2806 6.29976C19.2326 6.34596 19.152 6.43912 19.1014 6.50671C19.062 6.55927 19.0228 6.61194 18.9839 6.66475L18.9583 6.69986L18.9738 6.62965C18.9823 6.5909 19.0061 6.46443 19.0266 6.34863C19.0471 6.23271 19.0683 6.12396 19.0735 6.1071L19.0831 6.07634H18.4016V6.11867C18.4016 6.142 18.3814 6.28221 18.3569 6.43034C18.3323 6.57864 18.2918 6.82626 18.2668 6.98088C18.2419 7.13539 18.1976 7.40419 18.1684 7.57802C18.1373 7.76265 18.1045 7.94707 18.0699 8.13116C18.0026 8.48273 17.9338 8.834 17.8636 9.18497C17.8334 9.33478 17.7975 9.5116 17.7836 9.578C17.7696 9.64426 17.7582 9.70541 17.7582 9.71404V9.72945L18.1398 9.72955ZM27.197 9.72955H27.5871V9.49484L27.6321 9.20381C27.6569 9.0439 27.6977 8.7903 27.7228 8.64066C27.748 8.49091 27.7793 8.30124 27.7924 8.21904C27.8055 8.13695 27.8403 7.95923 27.8699 7.82394C27.8994 7.68869 27.936 7.54243 27.9516 7.49898C27.9671 7.45558 27.9799 7.40993 27.98 7.39767C27.9802 7.38541 28.0134 7.30649 28.0538 7.22235L28.1275 7.06923L28.2247 6.9424L28.3219 6.81557L28.428 6.737C28.4866 6.69371 28.5806 6.63644 28.637 6.60959L28.7398 6.56071L28.9631 6.56223L29.1864 6.56377L29.2745 6.59155L29.3624 6.61932L29.3772 6.61021L29.3919 6.60123L29.3928 6.5452C29.3932 6.51433 29.4122 6.39969 29.4352 6.29028L29.477 6.09143L29.4301 6.07339C29.3849 6.0569 29.3395 6.04172 29.2936 6.02769L29.2044 5.99997L29.0435 6.00046L28.8827 6.00082L28.7517 6.04622L28.6205 6.09148L28.5222 6.14987L28.4236 6.20825L28.2957 6.33997L28.1677 6.47166L28.099 6.57388C28.0612 6.63002 28.0279 6.67348 28.025 6.67038C28.0221 6.66737 28.0428 6.55028 28.0707 6.41023C28.0987 6.27013 28.122 6.13773 28.1225 6.116L28.1232 6.07651H27.4621V6.08769C27.4621 6.09383 27.4456 6.20654 27.4254 6.33803C27.4052 6.46953 27.3647 6.72331 27.3355 6.90205C27.3003 7.1158 27.2647 7.32944 27.2287 7.54308C27.1973 7.72781 27.1645 7.91217 27.13 8.09639C27.1052 8.22675 27.0612 8.45592 27.032 8.60571C27.0031 8.75545 26.9552 8.99654 26.926 9.1414L26.8398 9.56729L26.8069 9.72971L27.197 9.72955ZM9.90569 5.44377L10.0141 5.44414L10.1003 5.4153L10.1866 5.3864L10.263 5.31026L10.3393 5.23425L10.3794 5.13278L10.4197 5.03137L10.4211 4.88211L10.4226 4.73291L10.3868 4.67451L10.3511 4.61618L10.2889 4.57845L10.2266 4.54051H9.95794L9.86647 4.58076L9.77507 4.621L9.72197 4.67693L9.66889 4.73291L9.62714 4.8295L9.58545 4.92604L9.57759 5.07654L9.56977 5.22697L9.60852 5.30179L9.64731 5.3765L9.72229 5.40994L9.79711 5.44328L9.90569 5.44377Z" fill="black"/>
</svg>
