<svg width="39" height="31" viewBox="0 0 39 31" fill="none" xmlns="http://www.w3.org/2000/svg">
<g clip-path="url(#clip0_22_2760)">
<path d="M33.6833 10.7263H31.4573V9.57816C31.4573 8.66432 30.7074 7.9145 29.7936 7.9145C28.8798 7.9145 28.1299 8.66432 28.1299 9.57816V10.7263H25.9039V9.57816C25.9039 7.42243 27.6613 5.68848 29.7936 5.68848C31.9493 5.68848 33.6833 7.44586 33.6833 9.57816V10.7263Z" fill="#FFA400"/>
<path d="M34.5971 10.7261H24.9901C24.5683 10.7261 24.2402 11.0541 24.2402 11.4759V18.5757C24.2402 18.9975 24.5683 19.3256 24.9901 19.3256H34.5971C35.0189 19.3256 35.3469 18.9975 35.3469 18.5757V11.4759C35.3235 11.0541 34.9955 10.7261 34.5971 10.7261ZM30.2622 15.389V16.3497C30.2622 16.6075 30.0513 16.8418 29.7702 16.8418C29.5124 16.8418 29.2781 16.6309 29.2781 16.3497V15.389C28.9735 15.225 28.786 14.8969 28.786 14.522C28.786 13.9831 29.2312 13.5379 29.7702 13.5379C30.3091 13.5379 30.7543 13.9831 30.7543 14.522C30.7777 14.8969 30.5668 15.225 30.2622 15.389Z" fill="#003A70"/>
<path d="M24.0059 9.67155H21.6862C21.3113 9.67155 21.0067 9.36693 21.0067 8.99202C21.0067 8.61711 21.3113 8.3125 21.6862 8.3125H24.0059C24.3808 8.3125 24.6855 8.61711 24.6855 8.99202C24.6855 9.36693 24.3808 9.67155 24.0059 9.67155Z" fill="#FFA400"/>
<path d="M25.6462 6.01607C25.5056 6.01607 25.3415 5.96921 25.2244 5.85205L23.3967 4.35241C23.1155 4.11809 23.0687 3.69632 23.303 3.39171C23.5373 3.11052 23.9591 3.06366 24.2637 3.29798L26.0914 4.79762C26.3725 5.03193 26.4194 5.45371 26.1851 5.75832C26.0211 5.92234 25.8336 6.01607 25.6462 6.01607Z" fill="#FFA400"/>
<path d="M29.7936 4.42293C29.4187 4.42293 29.1141 4.11832 29.1141 3.74341V1.40023C29.1141 1.02532 29.4187 0.720703 29.7936 0.720703C30.1685 0.720703 30.4731 1.02532 30.4731 1.40023V3.74341C30.4731 4.11832 30.1685 4.42293 29.7936 4.42293Z" fill="#FFA400"/>
<path d="M33.9173 6.01607C33.7298 6.01607 33.519 5.92234 33.4018 5.75832C33.1675 5.47714 33.2143 5.03193 33.4955 4.79762L35.3232 3.29798C35.6044 3.06366 36.0496 3.11052 36.2839 3.39171C36.5182 3.67289 36.4714 4.11809 36.1902 4.35241L34.3625 5.85205C34.2219 5.96921 34.0813 6.01607 33.9173 6.01607Z" fill="#FFA400"/>
<path d="M37.878 9.67155H35.5348C35.1599 9.67155 34.8553 9.36693 34.8553 8.99202C34.8553 8.61711 35.1599 8.3125 35.5348 8.3125H37.878C38.2529 8.3125 38.5575 8.61711 38.5575 8.99202C38.5575 9.36693 38.2529 9.67155 37.878 9.67155Z" fill="#FFA400"/>
<path d="M0.0585938 19.232V11.6635H1.88628V17.6387H4.81526V19.232H0.0585938ZM10.8607 16.6311V16.842V17.0529H6.99442C7.01785 17.1935 7.06471 17.334 7.13501 17.4512C7.2053 17.5684 7.29903 17.6855 7.41619 17.7558C7.53335 17.8495 7.67394 17.9198 7.81453 17.9667C7.95512 18.0136 8.11914 18.037 8.25974 18.037C8.54092 18.037 8.77524 17.9901 8.96269 17.873C9.15015 17.7792 9.31417 17.6387 9.43133 17.4746L10.6498 18.2479C10.392 18.6228 10.064 18.8805 9.66565 19.0914C9.26731 19.2789 8.77524 19.396 8.2363 19.396C7.83796 19.396 7.46305 19.3258 7.11158 19.2086C6.7601 19.0914 6.45548 18.904 6.1743 18.6697C5.91655 18.4353 5.70567 18.1307 5.54164 17.7793C5.37762 17.4278 5.30732 17.0294 5.30732 16.5842C5.30732 16.139 5.37762 15.7641 5.54164 15.4126C5.68223 15.0612 5.89312 14.7565 6.15087 14.5222C6.40862 14.2879 6.71323 14.077 7.06471 13.9599C7.41619 13.8193 7.7911 13.749 8.18944 13.749C8.58778 13.749 8.93926 13.8193 9.2673 13.9364C9.59535 14.077 9.87653 14.2645 10.1109 14.4988C10.3452 14.7565 10.5326 15.0612 10.6498 15.4126C10.7904 15.7875 10.8607 16.1859 10.8607 16.6311ZM9.24387 15.975C9.24387 15.6938 9.15015 15.4595 8.98612 15.2486C8.8221 15.0377 8.54092 14.944 8.18944 14.944C8.02542 14.944 7.86139 14.9674 7.7208 15.0143C7.58021 15.0612 7.46305 15.1315 7.34589 15.2252C7.22874 15.3189 7.15844 15.4361 7.08814 15.5532C7.01785 15.6704 6.99442 15.811 6.97098 15.9516H9.24387V15.975ZM13.6725 15.2252V17.2637C13.6725 17.5215 13.7194 17.709 13.8131 17.8261C13.9068 17.9433 14.0708 18.0136 14.3286 18.0136C14.4223 18.0136 14.516 18.0136 14.6098 17.9901C14.7035 17.9667 14.7972 17.9433 14.8441 17.9198L14.8675 19.2086C14.7504 19.2555 14.5863 19.2789 14.3989 19.3258C14.2114 19.3492 14.024 19.3726 13.8365 19.3726C13.485 19.3726 13.1804 19.3258 12.9461 19.232C12.7118 19.1383 12.5009 19.0211 12.3603 18.8571C12.2197 18.6931 12.1026 18.4822 12.0557 18.2479C12.0088 18.0136 11.962 17.7558 11.962 17.4746V15.2252H11.095V13.913H11.9385V12.5071H13.6725V13.913H14.9144V15.2252H13.6725ZM16.5312 11.5229C16.0157 11.5229 15.5939 11.8979 15.5939 12.3899C15.5939 12.9054 15.9454 13.2335 16.4609 13.2335C16.5077 13.2335 16.5546 13.2335 16.578 13.21C16.4843 13.585 16.1328 13.8661 15.7814 13.913H15.7111V14.7331H15.8048C16.2266 14.6862 16.6249 14.4988 16.9295 14.2176C17.3279 13.8427 17.5387 13.2803 17.5387 12.6242C17.5387 11.9916 17.117 11.5229 16.5312 11.5229ZM20.5849 15.4829C20.4443 15.3423 20.2803 15.2252 20.0928 15.1315C19.9054 15.0377 19.6945 14.9909 19.4836 14.9909C19.3196 14.9909 19.179 15.0143 19.0384 15.0846C18.8978 15.1549 18.8275 15.2486 18.8275 15.4126C18.8275 15.5532 18.8978 15.6704 19.0618 15.7407C19.2258 15.811 19.4602 15.8813 19.8116 15.9516C20.0225 15.9984 20.21 16.0453 20.4209 16.139C20.6317 16.2327 20.7958 16.3265 20.9598 16.4436C21.1238 16.5608 21.2644 16.7248 21.3581 16.9123C21.4519 17.0997 21.4987 17.3106 21.4987 17.5684C21.4987 17.8964 21.4284 18.1776 21.2878 18.4119C21.1472 18.6462 20.9832 18.8337 20.7489 18.9743C20.538 19.1149 20.2803 19.2086 20.0225 19.2789C19.7413 19.3492 19.4836 19.3726 19.2024 19.3726C18.7572 19.3726 18.3354 19.3023 17.9371 19.1617C17.5153 19.0211 17.1638 18.8103 16.9061 18.5525L17.8902 17.5215C18.0542 17.6855 18.2417 17.8261 18.476 17.9433C18.7103 18.0604 18.9447 18.1073 19.2024 18.1073C19.343 18.1073 19.4836 18.0839 19.6242 18.0136C19.7648 17.9433 19.8351 17.8261 19.8351 17.6621C19.8351 17.4981 19.7413 17.3809 19.5773 17.2872C19.4133 17.2169 19.1321 17.1232 18.7806 17.0529C18.5932 17.006 18.4057 16.9591 18.2183 16.8888C18.0308 16.8185 17.8668 16.7248 17.7262 16.6077C17.5856 16.4905 17.4684 16.3265 17.3747 16.1625C17.281 15.975 17.2341 15.7641 17.2341 15.5298C17.2341 15.2017 17.3044 14.944 17.445 14.7097C17.5856 14.4754 17.7496 14.3113 17.9605 14.1707C18.1714 14.0302 18.4057 13.913 18.6635 13.8661C18.9212 13.7958 19.179 13.7724 19.4367 13.7724C19.8351 13.7724 20.2334 13.8427 20.6083 13.9599C20.9832 14.077 21.3113 14.2645 21.569 14.5222L20.5849 15.4829ZM0.0585938 27.9955V20.427H5.1433V21.9735H1.81598V23.4029H4.95585V24.8557H1.81598V26.4256H5.33076V27.9955H0.0585938ZM9.94683 27.9955V25.09C9.94683 24.9494 9.9234 24.8088 9.89996 24.6682C9.87653 24.5276 9.82967 24.4105 9.78281 24.3167C9.73594 24.223 9.64221 24.1293 9.54849 24.0824C9.45476 24.0121 9.31417 23.9887 9.15015 23.9887C8.98612 23.9887 8.84553 24.0121 8.72837 24.0824C8.61121 24.1527 8.51749 24.223 8.42376 24.3402C8.35346 24.4573 8.28317 24.5745 8.2363 24.7151C8.18944 24.8557 8.16601 24.9963 8.16601 25.1368V28.019H6.40862V22.6999H8.09571V23.4263H8.11914C8.18944 23.3092 8.25974 23.192 8.37689 23.0983C8.47062 22.9811 8.61121 22.8874 8.72837 22.8171C8.86896 22.7468 9.00955 22.6765 9.17358 22.6296C9.3376 22.5828 9.50162 22.5593 9.68908 22.5593C10.0406 22.5593 10.3452 22.6296 10.6029 22.7468C10.8607 22.864 11.0481 23.0514 11.2121 23.2389C11.3762 23.4498 11.4699 23.6841 11.5402 23.9418C11.6105 24.1996 11.6339 24.4573 11.6339 24.7385V28.019H9.94683V27.9955ZM16.2266 24.387C16.1328 24.2699 15.9922 24.1527 15.8282 24.0824C15.6642 24.0121 15.4767 23.9653 15.3127 23.9653C15.1253 23.9653 14.9612 24.0121 14.8206 24.0824C14.6801 24.1527 14.5395 24.2464 14.4457 24.387C14.352 24.5276 14.2583 24.6448 14.188 24.8088C14.1177 24.9728 14.0943 25.1368 14.0943 25.3243C14.0943 25.5118 14.1177 25.6758 14.188 25.8398C14.2349 26.0038 14.3286 26.1444 14.4457 26.2616C14.5629 26.3787 14.6801 26.4959 14.8441 26.5662C15.0081 26.6365 15.1721 26.6833 15.3596 26.6833C15.547 26.6833 15.7111 26.6599 15.8985 26.5896C16.0625 26.5193 16.2031 26.4256 16.3203 26.285L17.281 27.48C17.0701 27.6909 16.7655 27.8549 16.4374 27.9721C16.086 28.0893 15.7111 28.1596 15.3362 28.1596C14.9144 28.1596 14.516 28.0893 14.1646 27.9721C13.7896 27.8549 13.485 27.6675 13.2039 27.4097C12.9461 27.1754 12.7352 26.8708 12.5712 26.5193C12.4072 26.1678 12.3369 25.7695 12.3369 25.3243C12.3369 24.8791 12.4072 24.5042 12.5712 24.1527C12.7352 23.8012 12.9461 23.4966 13.2039 23.2623C13.4616 23.028 13.7896 22.8171 14.1646 22.6999C14.5395 22.5593 14.9144 22.5125 15.3362 22.5125C15.5236 22.5125 15.7111 22.5359 15.8985 22.5593C16.086 22.6062 16.2734 22.6531 16.4374 22.6999C16.6015 22.7702 16.7655 22.8405 16.9295 22.9343C17.0701 23.028 17.2107 23.1217 17.3044 23.2389L16.2266 24.387ZM21.3347 24.1293C21.2644 24.1058 21.1707 24.0824 21.1004 24.0824H20.8895C20.6552 24.0824 20.4677 24.1293 20.3037 24.1996C20.1397 24.2933 20.0225 24.387 19.9288 24.5042C19.8351 24.6213 19.7648 24.7619 19.7179 24.9025C19.671 25.0431 19.6476 25.1603 19.6476 25.2774V27.9955H17.8902V22.6765H19.5773V23.4498H19.6007C19.7413 23.1686 19.9288 22.9577 20.1865 22.7937C20.4443 22.6296 20.7255 22.5359 21.0535 22.5359H21.2644C21.3347 22.5359 21.3816 22.5593 21.4284 22.5593L21.3347 24.1293ZM25.4587 28.7922C25.3415 29.0734 25.2244 29.3077 25.1072 29.542C24.9666 29.7529 24.826 29.9404 24.6386 30.1044C24.4511 30.2684 24.2402 30.3621 24.0059 30.4559C23.7716 30.5262 23.467 30.573 23.139 30.573C22.9749 30.573 22.8109 30.573 22.6235 30.5496C22.4594 30.5262 22.2954 30.5027 22.1782 30.4559L22.3657 28.9797C22.4594 29.0031 22.5532 29.0265 22.6469 29.05C22.7406 29.0734 22.8343 29.0734 22.9281 29.0734C23.2092 29.0734 23.3967 29.0031 23.5139 28.8859C23.631 28.7688 23.7482 28.5813 23.8185 28.347L23.9825 27.9018L21.7565 22.6765H23.7013L24.8963 26.0976H24.9198L25.9742 22.6765H27.8253L25.4587 28.7922ZM34.2222 25.3243C34.2222 25.6992 34.1753 26.0507 34.0582 26.4022C33.941 26.7536 33.777 27.0348 33.5661 27.316C33.3552 27.5738 33.074 27.7846 32.7694 27.9487C32.4648 28.1127 32.0899 28.183 31.6916 28.183C31.3635 28.183 31.0589 28.1127 30.7543 27.9955C30.4731 27.8549 30.2388 27.6909 30.0748 27.4566H30.0513V30.6199H28.294V22.7468H29.9576V23.4029H29.981C30.1451 23.192 30.3794 23.0045 30.6606 22.8405C30.9418 22.6765 31.2932 22.6062 31.6916 22.6062C32.0665 22.6062 32.418 22.6765 32.746 22.8405C33.0506 22.9811 33.3318 23.192 33.5427 23.4498C33.7536 23.7075 33.9176 24.0121 34.0348 24.3402C34.1519 24.5979 34.2222 24.9494 34.2222 25.3243ZM32.5117 25.3243C32.5117 25.1603 32.4883 24.9963 32.4414 24.8322C32.3945 24.6682 32.3008 24.5276 32.2071 24.4105C32.1133 24.2933 31.9728 24.1761 31.8087 24.1058C31.6447 24.0355 31.4807 23.9887 31.2698 23.9887C31.0589 23.9887 30.8949 24.0355 30.7309 24.1058C30.5668 24.1761 30.4497 24.2933 30.3325 24.4105C30.2154 24.5276 30.1451 24.6916 30.0748 24.8557C30.0045 25.0197 29.981 25.1837 29.981 25.3477C29.981 25.5118 30.0045 25.6758 30.0748 25.8398C30.1451 26.0038 30.2154 26.1444 30.3325 26.285C30.4497 26.4022 30.5668 26.5193 30.7309 26.5896C30.8949 26.6599 31.0589 26.7068 31.2698 26.7068C31.4807 26.7068 31.6681 26.6599 31.8087 26.5896C31.9728 26.5193 32.0899 26.4022 32.2071 26.285C32.3008 26.1678 32.3945 26.0038 32.4414 25.8398C32.4883 25.6523 32.5117 25.4883 32.5117 25.3243ZM37.0106 23.9887V26.0273C37.0106 26.285 37.0575 26.4725 37.1512 26.5896C37.2449 26.7068 37.4089 26.7771 37.6667 26.7771C37.7604 26.7771 37.8541 26.7771 37.9479 26.7536C38.0416 26.7302 38.1353 26.7068 38.1822 26.6833L38.2056 27.9721C38.0885 28.019 37.9244 28.0424 37.737 28.0893C37.5495 28.1127 37.3621 28.1361 37.1746 28.1361C36.8231 28.1361 36.5185 28.0893 36.2842 27.9955C36.0499 27.9018 35.839 27.7846 35.6984 27.6206C35.5578 27.4566 35.4407 27.2457 35.3938 27.0114C35.3469 26.7771 35.3001 26.5193 35.3001 26.2381V23.9887H34.4565V22.6765H35.3001V21.2706H37.0106V22.6765H38.2525V23.9887H37.0106Z" fill="#003A70"/>
</g>
<defs>
<clipPath id="clip0_22_2760">
<rect width="38.593" height="30" fill="white" transform="translate(0 0.673828)"/>
</clipPath>
</defs>
</svg>
