<svg width="58" height="11" viewBox="0 0 58 11" fill="none" xmlns="http://www.w3.org/2000/svg">
<path d="M57.0377 0.583348C56.6711 0.614644 56.391 0.924179 56.3965 1.29214V10.0553C56.3909 10.4233 56.671 10.733 57.0377 10.7643C57.2259 10.7759 57.4106 10.7093 57.5481 10.5801C57.6855 10.4509 57.7635 10.2707 57.7636 10.0821V1.26553C57.7636 1.07689 57.6856 0.896646 57.5481 0.767464C57.4107 0.638282 57.2259 0.57165 57.0377 0.583348Z" fill="black"/>
<path d="M19.8294 0.655307C19.488 0.484405 19.0727 0.622635 18.9019 0.964036L15.0827 8.59573C15.0821 8.597 15.0808 8.59781 15.0794 8.59781C15.0779 8.59781 15.0767 8.597 15.076 8.59573L11.2568 0.964036C11.081 0.632323 10.6724 0.501681 10.3367 0.669791C10.001 0.837901 9.86089 1.24327 10.0211 1.58281L14.4252 10.3838C14.5423 10.6181 14.7819 10.766 15.0438 10.7658C15.0555 10.7658 15.0675 10.7644 15.0793 10.7638C15.0911 10.7633 15.1031 10.7658 15.1149 10.7658C15.3768 10.766 15.6164 10.6181 15.7336 10.3838L20.1381 1.58281C20.309 1.24143 20.1707 0.826197 19.8294 0.655307Z" fill="black"/>
<path d="M41.8268 0.65186C41.4594 0.683475 41.1789 0.993654 41.1842 1.36241V8.05116L41.1818 8.05481L41.1776 8.05346L35.6543 0.850195C35.4377 0.568264 35.0416 0.498484 34.7417 0.689424C34.541 0.8214 34.4218 1.04689 34.4258 1.28706V10.0539C34.4204 10.4226 34.7009 10.7328 35.0682 10.7643C35.2569 10.776 35.442 10.7092 35.5798 10.5798C35.7175 10.4503 35.7956 10.2697 35.7956 10.0806V3.2967L35.7981 3.29328L35.8022 3.2944L41.3258 10.4974C41.5459 10.7843 41.9509 10.851 42.2513 10.6498C42.4444 10.5165 42.5581 10.2955 42.5544 10.0609V1.33557C42.5544 1.14664 42.4763 0.965987 42.3385 0.836498C42.2007 0.706954 42.0155 0.640164 41.8268 0.65186Z" fill="black"/>
<path d="M53.6627 0.582113H45.3852C45.0172 0.576525 44.7075 0.856582 44.6762 1.22334C44.6646 1.41156 44.7312 1.59622 44.8605 1.73362C44.9896 1.87102 45.1698 1.94896 45.3584 1.949L48.8235 1.949C48.8255 1.94905 48.8272 1.95069 48.8272 1.95272L48.8272 10.0553C48.8216 10.4233 49.1015 10.7329 49.4682 10.7644C49.6565 10.776 49.8411 10.7093 49.9785 10.5801C50.116 10.4509 50.1938 10.2708 50.1939 10.0822V1.95272L50.1974 1.949L53.6362 1.949C54.0042 1.95447 54.3137 1.67444 54.345 1.30777C54.3566 1.11953 54.2899 0.934853 54.1607 0.797448C54.0316 0.660043 53.8513 0.582119 53.6627 0.582113Z" fill="black"/>
<path d="M6.17295 0.963702C6.04985 0.717842 5.79271 0.568349 5.51815 0.583021C5.24407 0.56897 4.98763 0.718357 4.86466 0.963702L0.459884 9.76504C0.289015 10.1064 0.427237 10.5217 0.768612 10.6925C1.10999 10.8634 1.52524 10.7252 1.69611 10.3838L2.77814 8.22184C2.77874 8.22056 2.78002 8.21975 2.78143 8.21975H8.25618C8.25759 8.21975 8.25887 8.22056 8.25947 8.22184L9.3415 10.3838C9.51237 10.7252 9.9276 10.8634 10.2689 10.6925C10.6103 10.5216 10.7485 10.1064 10.5776 9.76504L6.17295 0.963702ZM3.30065 7.17759L5.51552 2.75201C5.51611 2.75072 5.51739 2.7499 5.51881 2.7499C5.52022 2.7499 5.5215 2.75072 5.52209 2.75201L7.73707 7.17759C7.73765 7.17872 7.73759 7.18007 7.73692 7.18115C7.73625 7.18223 7.73506 7.18287 7.73379 7.18285H3.30393C3.30266 7.18287 3.30147 7.18223 3.3008 7.18115C3.30013 7.18007 3.30007 7.17872 3.30065 7.17759Z" fill="black"/>
<path d="M32.3475 9.82935C32.3393 9.80614 32.3298 9.78342 32.3189 9.76134L28.2628 1.56574C28.0545 1.08411 27.6206 0.73737 27.1048 0.64039C26.5891 0.543411 26.0588 0.708846 25.6898 1.08189L24.6931 2.97939L22.3014 8.01717C21.9065 8.77832 21.2838 9.28231 20.5419 9.45875L24.2042 2.08474C24.2115 2.06974 24.2183 2.05452 24.2245 2.03907C24.2844 1.90451 24.4179 1.81787 24.5652 1.81807C24.5791 1.8183 24.5929 1.81933 24.6066 1.82114L25.209 0.74973C24.8231 0.577659 24.3843 0.567345 23.9908 0.721094C23.5972 0.874842 23.2816 1.17984 23.1146 1.56793L19.0542 9.74469C19.048 9.75641 19.0422 9.76835 19.0367 9.78073C18.9465 9.98046 18.9601 10.2118 19.0731 10.3995C19.1862 10.5873 19.3843 10.7076 19.603 10.7213C19.7135 10.7305 19.8253 10.7351 19.9358 10.7351C21.3894 10.7351 22.676 9.92277 23.3771 8.5618C23.38 8.556 23.383 8.55019 23.3857 8.54417L25.6679 3.7367L25.6685 3.73516L25.6888 3.69267L26.3568 2.28921L26.3558 2.28713L26.4564 2.07532C26.4606 2.06642 26.4646 2.05747 26.4683 2.04849C26.5261 1.909 26.6623 1.81806 26.8133 1.81806C26.9643 1.81806 27.1004 1.909 27.1583 2.04849C27.1632 2.06065 27.1692 2.0727 27.1746 2.08452L30.8239 9.45842C30.0873 9.28144 29.4676 8.77777 29.0733 8.01739L26.6716 2.95223L26.0084 4.36675L27.9887 8.54329C27.9916 8.54921 27.9945 8.55523 27.9975 8.56114C28.7094 9.94237 29.9596 10.7344 31.4288 10.7344C31.5448 10.7344 31.6622 10.7293 31.7777 10.7192C31.8509 10.7129 31.9222 10.6932 31.9883 10.6611C32.3096 10.5226 32.4672 10.1581 32.3475 9.82935Z" fill="black"/>
</svg>
