<svg width="27" height="17" viewBox="0 0 27 17" fill="none" xmlns="http://www.w3.org/2000/svg">
<path d="M13.9029 14.4705C12.5256 15.5535 10.7883 16.1995 8.90006 16.1995C4.42616 16.1995 0.800064 12.5734 0.800064 8.09951C0.800064 3.62561 4.42616 -0.000488281 8.90006 -0.000488281C10.7883 -0.000488281 12.5256 0.645514 13.9029 1.72849C15.2803 0.645988 17.0161 -0.000488281 18.9 -0.000488281C23.3667 -0.000488281 27 3.63281 27 8.09951C27 12.5662 23.3667 16.1995 18.9 16.1995C17.0161 16.1995 15.2803 15.553 13.9029 14.4705ZM18.9 14.1997C22.2642 14.1997 25.0002 11.4628 25.0002 8.09951C25.0002 4.73621 22.2642 1.99931 18.9 1.99931C17.5644 1.99931 16.3277 2.43088 15.3218 3.16187C16.3741 4.5286 17.0001 6.24103 17.0001 8.09951C17.0001 9.95799 16.3741 11.6704 15.3218 13.0371C16.3277 13.7681 17.5644 14.1997 18.9 14.1997Z" fill="black"/>
</svg>
