<svg width="34" height="9" viewBox="0 0 34 9" fill="none" xmlns="http://www.w3.org/2000/svg">
<path d="M14.09 8.7104H12.8973C12.7446 8.7104 12.6605 8.57079 12.7691 8.41729L14.0615 6.58116L12.7438 2.72279C12.6744 2.52197 12.7634 2.35871 12.9822 2.35871H14.0435C14.2468 2.35871 14.3579 2.44033 14.402 2.58891L15.1572 5.04386L16.8471 2.59464C16.9582 2.4338 17.0357 2.357 17.2292 2.357H18.3583C18.5632 2.357 18.622 2.54482 18.4971 2.72359L14.4444 8.53646C14.3778 8.64672 14.2588 8.71281 14.132 8.7128C14.1181 8.7128 14.1041 8.71201 14.09 8.7104ZM24.2847 5.03571C24.4014 3.4649 25.4897 2.23944 27.1038 2.20601C27.7985 2.18963 28.2965 2.39705 28.4917 2.85915C28.5472 2.98972 28.6068 2.96687 28.6288 2.83711L28.6713 2.58809C28.6982 2.42968 28.7488 2.37171 28.8525 2.37171H30.0021C30.1563 2.37171 30.2062 2.47134 30.1736 2.67465L29.5285 6.72238C29.4853 6.99513 29.3995 7.06611 29.2232 7.06611H28.1766C28.0361 7.06611 27.9765 6.98609 27.9961 6.83509L28.0345 6.54604C28.05 6.42524 27.9406 6.47587 27.8328 6.57381L27.8378 6.57624C27.4181 6.96 27.0458 7.20491 26.213 7.20491C25.0652 7.20491 24.1949 6.2505 24.2847 5.03571ZM25.8783 4.71733C25.7779 5.39655 26.262 5.95086 26.9568 5.95086C27.6516 5.95086 28.3015 5.39655 28.4018 4.71733C28.5023 4.03802 28.0182 3.48371 27.3234 3.48371C26.6286 3.48371 25.9788 4.03802 25.8783 4.71733ZM6.10473 5.03571C6.22146 3.4649 7.30978 2.23944 8.92375 2.20601C9.61858 2.18963 10.1166 2.39705 10.3117 2.85915C10.3672 2.98972 10.4268 2.96687 10.4489 2.83711L10.4913 2.58809C10.5182 2.42968 10.5689 2.37171 10.6725 2.37171H11.8237C11.978 2.37171 12.0278 2.47134 11.9951 2.67465L11.3502 6.72238C11.3069 6.99513 11.2212 7.06611 11.0448 7.06611H9.99821C9.85781 7.06611 9.79823 6.98609 9.81775 6.83509L9.85614 6.54604C9.87164 6.42524 9.76223 6.47587 9.6545 6.57381L9.65773 6.57624C9.2381 6.96 8.86577 7.20491 8.03306 7.20491C6.88521 7.20491 6.01495 6.2505 6.10473 5.03571ZM7.69919 4.71733C7.59875 5.39655 8.08288 5.95086 8.77761 5.95086C9.47323 5.95086 10.1223 5.39655 10.2227 4.71733C10.3231 4.03802 9.839 3.48371 9.14419 3.48371C8.44946 3.48371 7.79955 4.03802 7.69919 4.71733ZM31.7843 7.07265H30.576C30.5334 7.07455 30.4923 7.05737 30.4637 7.02578C30.4351 6.99417 30.4221 6.95156 30.4282 6.90938L31.4896 0.185375C31.5105 0.0908939 31.5936 0.0232227 31.6904 0.0221133H32.8987C32.9412 0.0201904 32.9824 0.0373116 33.011 0.0689039C33.0396 0.100521 33.0526 0.143194 33.0465 0.185375L31.9851 6.90938C31.9649 7.00454 31.8815 7.07294 31.7842 7.07427L31.7843 7.07265ZM18.7576 7.05142C18.5697 7.05142 18.5044 6.93142 18.5461 6.66279L19.52 0.421312C19.5682 0.114338 19.6834 0 19.8931 0H22.7131V0.00167637C23.7801 0.00167637 24.7647 0.580469 24.63 2.02312C24.4668 3.73757 23.5483 4.68625 22.0992 4.69037H20.8337C20.6517 4.69037 20.5634 4.83892 20.5161 5.14349L20.2712 6.70034C20.2344 6.93547 20.1136 7.05142 19.9356 7.05142H18.7576ZM22.0069 1.36263L21.1039 1.36669L20.7945 3.34242H21.7538C22.3538 3.31956 22.7522 2.90404 22.7923 2.15458C22.8167 1.69336 22.5063 1.36263 22.0123 1.36262C22.0105 1.36262 22.0087 1.36262 22.0069 1.36263ZM0.578423 7.05142C0.390596 7.05142 0.325266 6.93142 0.366929 6.66279L1.33925 0.422939C1.38747 0.115953 1.50255 0.00167637 1.71239 0.00167637H4.53232H4.53471C5.60177 0.00167637 6.58637 0.580469 6.45169 2.02312C6.28842 3.73757 5.36997 4.68625 3.92081 4.69037H2.65451C2.47243 4.69037 2.38425 4.83892 2.33694 5.14349L2.09204 6.70034C2.05531 6.93547 1.93444 7.05142 1.75647 7.05142H0.578423ZM3.82854 1.36263L2.92557 1.36669L2.61615 3.34242H3.57548C4.1755 3.31956 4.57396 2.90404 4.61395 2.15458C4.6383 1.69336 4.328 1.36263 3.83396 1.36262C3.83214 1.36262 3.83036 1.36262 3.82854 1.36263Z" fill="black"/>
</svg>
