<svg width="24" height="24" viewBox="0 0 24 24" fill="none" xmlns="http://www.w3.org/2000/svg">
<path d="M9.55226 22.3853L5.10182 17.9349H5.79445C6.71339 17.9349 7.57814 17.5768 8.22804 16.9274L11.7547 13.4005C12.0012 13.154 12.4314 13.1532 12.678 13.4005L16.1919 16.9144C16.8418 17.5641 17.7063 17.922 18.6255 17.922H19.0488L14.5855 22.3853C13.8906 23.0802 12.9798 23.4276 12.0689 23.4276C11.158 23.4276 10.2471 23.0802 9.55226 22.3853ZM1.39748 14.2306C0.00733948 12.8405 0.00733948 10.587 1.39748 9.19724L4.10524 6.4894C4.16212 6.5108 4.22218 6.52603 4.28639 6.52603H5.79445C6.42824 6.52603 7.04884 6.78304 7.49684 7.23131L11.0239 10.7583C11.3528 11.0868 11.7844 11.2515 12.2163 11.2515C12.6482 11.2515 13.0801 11.0868 13.409 10.758L16.9231 7.244C17.3709 6.79588 17.9915 6.53873 18.6255 6.53873H19.8516C19.9194 6.53873 19.9839 6.5238 20.0432 6.50003L22.7402 9.19724C24.1304 10.587 24.1304 12.8405 22.7402 14.2306L20.0435 16.9276C19.9839 16.9036 19.9194 16.8889 19.8516 16.8889H18.6255C17.9915 16.8889 17.3709 16.6318 16.9231 16.1834L13.409 12.67C12.772 12.0324 11.6611 12.0327 11.0237 12.6696L7.49684 16.1964C7.04884 16.6445 6.42824 16.9017 5.79445 16.9017H4.28639C4.22218 16.9017 4.16188 16.9169 4.10524 16.9383L1.39748 14.2306ZM11.7547 10.0276L8.22804 6.50032C7.57814 5.85074 6.71339 5.49271 5.79445 5.49271H5.10207L9.55226 1.04242C10.9422 -0.347473 13.1958 -0.347473 14.5855 1.04242L19.0488 5.50555H18.6255C17.7063 5.50555 16.8418 5.86343 16.1919 6.51318L12.678 10.0273C12.5508 10.155 12.3838 10.2186 12.2166 10.2186C12.0491 10.2186 11.8819 10.1548 11.7547 10.0276Z" fill="black"/>
</svg>
