<svg width="35" height="11" viewBox="0 0 35 11" fill="none" xmlns="http://www.w3.org/2000/svg">
<path d="M25.1446 0.419698C24.6056 0.218744 23.7599 0 22.7133 0C20.037 0 18.1458 1.35225 18.1342 3.28747C18.1123 4.70984 19.475 5.51156 20.5049 5.99091C21.563 6.48178 21.9168 6.7874 21.9115 7.2228C21.9063 7.89369 21.0659 8.19302 20.2924 8.19302C19.2175 8.19302 18.6345 8.0465 17.7355 7.66971L17.4016 7.51167L17.0206 9.74727C17.6748 10.0142 18.847 10.2486 20.0569 10.2706C22.9079 10.2706 24.7667 8.92985 24.7877 6.86276C24.8097 5.72926 24.0802 4.86892 22.5259 4.15931C21.5881 3.70193 21.001 3.39004 21.001 2.92115C21.001 2.50668 21.5023 2.07128 22.5489 2.07128C23.448 2.05453 24.0812 2.2513 24.5763 2.44702L24.8327 2.5611L25.2084 0.408185L25.1446 0.419698ZM32.1015 0.185253H30.0083C29.3541 0.185253 28.8685 0.360041 28.5796 1.00895L24.5564 10.1282H27.4022L27.9757 8.6347L31.4474 8.63994C31.5343 8.98846 31.7792 10.1272 31.7792 10.1272H34.2921L32.1015 0.185253ZM14.2805 0.103616H16.9903L15.2947 10.0508H12.585L14.2805 0.098382V0.103616ZM7.39058 5.58168L7.66793 6.96638L10.3222 0.185253H13.1952L8.92075 10.1115H6.06031L3.71586 1.70601C3.66666 1.55948 3.60701 1.46005 3.45943 1.37423C2.66922 0.959761 1.78063 0.621699 0.799942 0.387254L0.832388 0.178973H5.20416C5.79342 0.200953 6.27278 0.387254 6.43605 1.01942L7.39058 5.58692L7.39058 5.58168ZM28.7481 6.6011L29.8335 3.81601C29.8167 3.84218 30.0564 3.24351 30.1925 2.86672L30.3777 3.72182L31.0057 6.59482H28.7481V6.6011Z" fill="black"/>
</svg>
