<svg width="54" height="20" viewBox="0 0 54 20" fill="none" xmlns="http://www.w3.org/2000/svg">
<g clip-path="url(#clip0_22_2781)">
<path d="M39.0713 7.28964H37.1712V13.7738C37.1704 13.8961 37.0711 13.9949 36.9485 13.9959H35.4852C35.3626 13.9949 35.2634 13.8961 35.2625 13.7738V7.28964H33.3485C33.2906 7.292 33.2342 7.2708 33.1922 7.2309C33.1502 7.19101 33.1262 7.13584 33.1258 7.07801V5.92966C33.1262 5.87184 33.1502 5.81667 33.1922 5.77678C33.2342 5.73688 33.2906 5.71568 33.3485 5.71804H39.0678C39.1912 5.71213 39.2961 5.80671 39.3027 5.92966V7.07801C39.2961 7.19957 39.1933 7.29359 39.0713 7.28964Z" fill="#FF3366"/>
<path d="M45.1647 13.9524C44.4156 14.0592 43.6593 14.1079 42.9027 14.0981C41.4603 14.0981 40.1866 13.7303 40.1866 11.7025V8.00246C40.1866 5.97463 41.4724 5.61903 42.9131 5.61903C43.6639 5.60877 44.4144 5.65691 45.1577 5.763C45.3143 5.78555 45.3804 5.84106 45.3804 5.98504V7.02584C45.3795 7.14808 45.2803 7.24693 45.1577 7.24788H42.8087C42.2868 7.24788 42.0936 7.42135 42.0936 8.00593V9.01897H45.0759C45.1985 9.01991 45.2977 9.11878 45.2986 9.24101V10.2992C45.2978 10.4214 45.1985 10.5203 45.0759 10.5212H42.0936V11.7025C42.0936 12.2819 42.2833 12.4606 42.8087 12.4606H45.1647C45.2873 12.4615 45.3864 12.5604 45.3874 12.6826V13.7234C45.3891 13.8622 45.3213 13.9298 45.1647 13.9524Z" fill="#FF3366"/>
<path d="M53.5965 13.9959H51.82C51.6961 14.0051 51.5798 13.9356 51.5294 13.8224L49.9878 11.3939L48.5958 13.7773C48.5175 13.9109 48.4392 13.9994 48.3157 13.9994H46.6662C46.623 14.0071 46.5786 13.9953 46.545 13.9671C46.5114 13.939 46.4921 13.8974 46.4922 13.8537C46.4945 13.8264 46.5022 13.7999 46.5148 13.7756L48.9386 9.75291L46.4922 5.9297C46.4796 5.90917 46.4719 5.88603 46.4696 5.86205C46.4779 5.77422 46.5554 5.70931 46.6436 5.71634H48.4427C48.5663 5.71634 48.655 5.82736 48.7229 5.92797L50.1531 8.18304L51.5451 5.92797C51.5955 5.81392 51.7014 5.73391 51.8252 5.71634H53.4799C53.5681 5.70931 53.6456 5.77422 53.6539 5.86205C53.6517 5.88603 53.6439 5.90917 53.6313 5.9297L51.1953 9.77546L53.7305 13.7652C53.7501 13.7991 53.7614 13.8371 53.7635 13.8762C53.7427 13.9525 53.6852 13.9959 53.5965 13.9959Z" fill="#FF3366"/>
<path d="M30.4498 5.74029C30.3663 5.73844 30.2933 5.79595 30.2758 5.87733L28.6524 11.8654C28.6298 11.9886 28.5967 12.0389 28.4958 12.0389C28.3949 12.0389 28.3618 11.9938 28.3392 11.8654L26.721 5.87733C26.7035 5.79595 26.6305 5.73844 26.547 5.74029H24.9497C24.8961 5.73897 24.8449 5.76238 24.8109 5.80374C24.7769 5.84509 24.7639 5.89976 24.7757 5.95192C24.7757 5.95192 26.7575 12.816 26.7784 12.8906C27.0429 13.7093 27.685 14.1048 28.501 14.1048C29.2839 14.1329 29.989 13.6358 30.2236 12.8906C30.2549 12.7969 32.1932 5.95192 32.1932 5.95192C32.2044 5.90002 32.1911 5.84586 32.1572 5.80494C32.1233 5.76402 32.0724 5.74083 32.0192 5.74202L30.4498 5.74029Z" fill="#FF3366"/>
<path d="M21.3967 0.173899H4.74179C4.13912 0.179392 3.58278 0.497268 3.27337 1.01291C2.96397 1.52854 2.94613 2.16757 3.22628 2.69957L4.89316 5.86361H1.87258C1.48668 5.85661 1.12588 6.05373 0.924158 6.38178C0.722433 6.70984 0.709912 7.11982 0.891244 7.4595L6.25034 17.5553C6.44264 17.9178 6.82029 18.1446 7.23168 18.1446C7.64306 18.1446 8.02071 17.9178 8.21302 17.5553L9.66763 14.8197L11.4946 18.2647C11.7916 18.824 12.3744 19.1738 13.0092 19.1738C13.644 19.1738 14.2268 18.824 14.5239 18.2647L22.8757 2.60937C23.1522 2.09408 23.1356 1.47158 22.8321 0.971648C22.5285 0.471719 21.9829 0.168495 21.3967 0.173899ZM13.9549 6.78818L10.301 13.6193C10.1754 13.8553 9.92944 14.0028 9.66154 14.0028C9.39363 14.0028 9.14764 13.8553 9.0221 13.6193L5.41515 6.8541C5.30387 6.64591 5.31037 6.39475 5.43227 6.19256C5.55417 5.99036 5.77359 5.86679 6.01022 5.86708H13.3912C13.6135 5.86366 13.8212 5.97776 13.937 6.16704C14.0529 6.35633 14.0597 6.59258 13.9549 6.78818Z" fill="#FF3366"/>
</g>
<defs>
<clipPath id="clip0_22_2781">
<rect width="53" height="19" fill="white" transform="translate(0.76355 0.173828)"/>
</clipPath>
</defs>
</svg>
